# xmcd
#
# Track frame offsets: 
#        150
#        79890
#        121559
#        170752
#
# Disc length: 2478 seconds
#
# Revision: 0
# Processed by: cddbd v1.5.2PL0 Copyright (c) Steve Scherf et al.
# Submitted via: ExactAudioCopy v1.0b4
#
DISCID=2809ac04
DTITLE=Ten Years After - Recorded Live (LP2)
DYEAR=1973
DGENRE=Blues
TTITLE0=Classical Thing
TTITLE1=Silly Thing
TTITLE2=Slow Blues In 'C'
TTITLE3=Choo Choo Mama
EXTD=
EXTT0=
EXTT1=
EXTT2=
EXTT3=
PLAYORDER=
